<?xml version="1.0" standalone="no"?>
<!DOCTYPE svg PUBLIC "-//W3C//DTD SVG 20010904//EN"
 "http://www.w3.org/TR/2001/REC-SVG-20010904/DTD/svg10.dtd">
<svg version="1.0" xmlns="http://www.w3.org/2000/svg"
 width="480.000000pt" height="480.000000pt" viewBox="0 0 480.000000 480.000000"
 preserveAspectRatio="xMidYMid meet">

<g transform="translate(0.000000,480.000000) scale(0.100000,-0.100000)"
fill="#000000" stroke="none">
<path d="M826 3209 c-35 -41 -34 -83 3 -120 16 -16 36 -29 45 -29 29 0 68 24
82 51 21 42 17 67 -15 100 -40 40 -81 39 -115 -2z"/>
<path d="M1312 2880 c-88 -21 -154 -102 -154 -190 0 -52 12 -81 51 -123 33
-36 58 -49 168 -88 142 -51 181 -94 162 -179 -20 -89 -153 -116 -250 -50 -40
27 -109 120 -109 147 0 7 -9 13 -20 13 -19 0 -20 -7 -20 -115 0 -115 0 -115
24 -115 17 0 26 7 30 24 l6 25 66 -31 c59 -28 72 -30 143 -26 91 5 147 32 195
91 26 32 31 48 34 105 6 117 -41 163 -239 237 -116 43 -144 69 -144 131 0 40
4 50 35 75 28 24 43 29 88 29 81 0 143 -43 177 -122 11 -27 21 -38 36 -38 19
0 21 4 15 31 -3 17 -6 65 -6 105 0 72 -1 74 -24 74 -15 0 -27 -7 -31 -19 -5
-18 -7 -18 -66 0 -63 20 -111 22 -167 9z"/>
<path d="M2010 2876 c-134 -28 -228 -136 -249 -287 -32 -231 111 -420 318
-421 88 -1 158 23 215 74 151 132 170 392 40 538 -53 58 -96 83 -172 99 -63
13 -80 13 -152 -3z m167 -55 c68 -42 104 -145 104 -299 0 -193 -72 -312 -190
-312 -133 1 -212 145 -198 360 9 129 44 210 111 251 42 26 130 26 173 0z"/>
<path d="M3723 2876 c-23 -8 -64 -30 -91 -50 -27 -20 -52 -36 -56 -36 -3 0 -6
20 -6 44 l0 44 -62 -4 c-150 -11 -168 -15 -168 -33 0 -13 10 -20 35 -24 20 -3
45 -16 55 -29 18 -22 19 -43 20 -430 0 -453 4 -431 -70 -443 -30 -5 -40 -11
-40 -26 0 -18 10 -19 190 -19 180 0 190 1 190 19 0 15 -10 21 -42 26 -47 8
-79 22 -90 39 -4 6 -8 67 -8 135 0 113 1 123 18 116 70 -30 103 -36 167 -33
84 4 143 30 204 90 142 139 139 415 -5 548 -73 68 -161 92 -241 66z m59 -66
c80 -23 129 -89 149 -205 20 -117 -7 -269 -60 -332 -71 -85 -194 -83 -268 6
-22 25 -22 34 -23 248 l0 222 34 26 c56 43 104 52 168 35z"/>
<path d="M807 2870 c-65 -4 -121 -10 -124 -14 -15 -15 10 -34 55 -40 34 -4 56
-14 73 -32 l24 -26 3 -290 c4 -408 -11 -514 -76 -539 -23 -9 -29 -7 -42 13
-35 54 -69 79 -102 76 -63 -6 -77 -88 -22 -125 36 -23 127 -22 184 4 52 23
115 88 140 147 35 77 41 159 38 501 -3 284 -5 330 -18 331 -8 1 -68 -2 -133
-6z"/>
<path d="M2675 2873 c-157 -12 -165 -14 -165 -34 0 -14 7 -19 26 -19 15 0 38
-12 55 -29 l29 -29 0 -209 c0 -233 10 -290 57 -335 78 -74 209 -63 319 28 l43
34 3 -47 3 -48 85 3 c109 4 140 10 140 28 0 15 -6 18 -52 28 -54 12 -58 36
-58 350 l0 285 -47 -4 c-27 -3 -83 -7 -125 -11 -68 -5 -78 -8 -78 -25 0 -16 7
-19 40 -19 31 0 47 -6 65 -26 25 -27 25 -27 25 -245 l0 -217 -31 -32 c-44 -44
-83 -61 -140 -62 -42 -1 -54 3 -79 27 -17 16 -35 45 -40 64 -5 20 -10 152 -10
294 0 200 -3 257 -12 255 -7 -1 -31 -3 -53 -5z"/>
</g>
</svg>
